<svg xmlns="http://www.w3.org/2000/svg" width="110" height="110"><circle cx="50" r="5" transform="translate(5 5)"/><circle cx="75" cy="6.699" r="5" transform="translate(5 5)"/><circle cx="93.301" cy="25" r="5" transform="translate(5 5)"/><circle cx="100" cy="50" r="5" transform="translate(5 5)"/><circle cx="93.301" cy="75" r="5" transform="translate(5 5)"/><circle cx="75" cy="93.301" r="5" transform="translate(5 5)"/><circle cx="50" cy="100" r="5" transform="translate(5 5)"/><circle cx="25" cy="93.301" r="5" transform="translate(5 5)"/><circle cx="6.699" cy="75" r="5" transform="translate(5 5)"/><circle cy="50" r="5" transform="translate(5 5)"/><circle cx="6.699" cy="25" r="5" transform="translate(5 5)"/><circle cx="25" cy="6.699" r="5" transform="translate(5 5)"/><animateTransform attributeType="xml" attributeName="transform" type="rotate" from="0 55 55" to="360 55 55" dur="3s" repeatCount="indefinite"/></svg>